<svg id="Layer_1" data-name="Layer 1" xmlns="http://www.w3.org/2000/svg" viewBox="0 0 537.07 537.07"><defs><style>.cls-1{fill:#fff;}.cls-2{fill:#040006;}</style></defs><title>assing-brand</title><rect class="cls-1" width="537.07" height="537.07" rx="113.04" ry="113.04"/><path class="cls-2" d="M272.31,87.09C230.38,72.68,186.76,97.38,155,123.17c-32.05,26-59.51,60.77-67.25,102.22-3.74,20-3.14,41.22,3.07,60.68,7.54,23.6,23.6,42.52,41.77,58.82,17.31,15.53,36.64,28.53,58.72,36.11a154,154,0,0,0,55.74,7.87c51.91-2,99.38-26.85,144.39-50.47,2.43-1.28-13.34-16.33-14.62-17.44a105.26,105.26,0,0,0-12.59-9.78c-1.48-.94-4.69-3.52-6.53-2.56-38.78,20.35-78.62,41.2-122.36,48.21a161.48,161.48,0,0,1-53.68-.33,139,139,0,0,1-25.73-7,108.55,108.55,0,0,1-10.15-4.57c-1.05-.53-2.1-1.09-3.14-1.65-.24-.13-2.77-1.57-1.53-.84.69.4-7-4.71-3-1.83a18.34,18.34,0,0,0-2.27-1.67c.45.21,3.75,3.06.93.7,4.7,3.93,2.36,2,1.35,1.13l2.33,2.15c-1.32-1.28-1.36-1.29-.12-.06,2.32,1.91,0,0-.57-.62-2-2,2.61,3.28-.23-.29-.59-.74-1.22-1.45-1.8-2.2,1.35,1.71-1.26-1.76-1.25-1.73a90.43,90.43,0,0,1-12-24.55c-5.84-18.28-6.65-37.85-3.35-56.69,6.8-38.83,31-72,60.14-97.55,32.14-28.14,78-57.24,122.28-42,2.85,1,0-3.47,0-3.46-2.31-3.65-6-7.15-9.05-10.07-6.35-6-13.82-13.62-22.32-16.54Z" transform="translate(-12.53 -15.13)"/><path class="cls-2" d="M313.78,147.78a927.69,927.69,0,0,1,4.37,112.93c0,1.8,3.69,4.44,4.54,5.14a121.6,121.6,0,0,0,13,9.22c1.35.85,20.09,11.45,20.42,9.83a79.11,79.11,0,0,1,30-47.65,52.77,52.77,0,0,1,12.39-7.15,24.54,24.54,0,0,1,9-1.82,30.38,30.38,0,0,1,3.16.27,14.87,14.87,0,0,1,1.64.33q13.65,3.59-23-14.76c6.71,6.92,11,15.6,14.79,24.39,9.14,21.35,13.93,44.43,18.58,67.09q7.2,35.1,11.62,70.68,5,40.37,6.41,81.06c.06,1.87,3.55,4.32,4.54,5.14a121.51,121.51,0,0,0,13,9.21,132.3,132.3,0,0,0,13.84,7.89c.56.27,6.6,2.86,6.57,1.95a916.06,916.06,0,0,0-20-161.22c-5.17-23.89-10.67-48.45-22.17-70.22-6.61-12.52-16.53-21.27-28.14-29.17-13-8.84-29.63-21-46.2-15.59-23.08,7.59-39.41,32.59-44.06,55.38l38,24.19A931.74,931.74,0,0,0,351.73,172c-.2-2-3.4-4.19-4.54-5.14a121.6,121.6,0,0,0-13-9.22,134.12,134.12,0,0,0-13.84-7.89c-.56-.26-6.66-2.78-6.58-1.94Z" transform="translate(-12.53 -15.13)"/></svg>