<svg id="Layer_1" data-name="Layer 1" xmlns="http://www.w3.org/2000/svg" viewBox="0 0 378.42 460.1"><defs><style>.cls-1{fill:white;}</style></defs><title>signature-black</title><path class="cls-1" d="M265,49.51c-40.92-14-83.43,10.18-114.33,35.41-31.07,25.37-57.63,59-65.2,99.28-3.61,19.16-3.08,39.43,2.73,58.11,6.51,20.93,19.86,38,35.9,52.61,15.3,13.9,32.68,25.14,52.29,31.87a150.14,150.14,0,0,0,54.65,7.66c50.34-2,96.44-26.24,140.1-49.15,1.62-.85-8.91-10.89-9.75-11.63-1.87-1.66-9.74-9.8-12.74-8.22-37.77,19.81-76.54,40.09-119.11,47-32.56,5.27-70.91,1.6-98.63-17.75.94.65-1.39-1-1.53-1.14-1.88-1.42,1.31,1.1-.51-.41s1.94,2.63-.72-.65c.37.46,1.86,2.11-.16-.21l-1.24-1.43c-1.35-1.58-2.61-3.22-3.81-4.92a91,91,0,0,1-12-24.61c-5.8-18.2-6.51-37.73-3.11-56.46,6.81-37.54,30.34-69.63,58.55-94.32,31.43-27.5,76.28-55.81,119.53-41,1.9.65,0-2.33,0-2.32-1.37-2.4-4.09-4.84-6-6.71-4.19-4-9.23-9.08-14.88-11Z" transform="translate(-83.23 -45.37)"/><path class="cls-1" d="M281.34,111.42a1130.64,1130.64,0,0,1,5.33,137.83c0,1.2,2.46,3,3,3.43a84.36,84.36,0,0,0,8.67,6.14c.9.57,13.39,7.63,13.61,6.56a96.51,96.51,0,0,1,36.72-58.22,62.55,62.55,0,0,1,16.05-9c6.7-2.39,11.78-1.69,18.44-.63-10.59-1.69-13.95-10.4-9.42-5.53.81.86,1.63,1.69,2.4,2.6a65.67,65.67,0,0,1,4.82,6.55,125.08,125.08,0,0,1,9.19,17.4c11.8,26.28,17.83,54.91,23.66,83q8.93,43,14.43,86.6,6.36,50.36,8.09,101.12c0,1.25,2.37,2.89,3,3.43a83.15,83.15,0,0,0,8.66,6.14,84.1,84.1,0,0,0,9.23,5.26c.37.18,4.4,1.91,4.38,1.3A1116.39,1116.39,0,0,0,437.72,311c-6.37-29.76-13.09-60.37-27.4-87.49-6.63-12.56-15.75-22-27.47-30-13.11-8.9-27.37-17.19-43.41-11.47-14,5-26.17,16.19-35,27.82a96.81,96.81,0,0,0-17.76,39.43L312,265.38a1130.64,1130.64,0,0,0-5.33-137.83c-.13-1.31-2.27-2.8-3-3.43A83.15,83.15,0,0,0,295,118a84.1,84.1,0,0,0-9.23-5.26c-.37-.18-4.44-1.86-4.38-1.3Z" transform="translate(-83.23 -45.37)"/></svg>